<svg xmlns="http://www.w3.org/2000/svg" viewBox="0 0 512 512">
  <rect width="512" height="512" rx="0" fill="#141122"/>
  <!-- Flask neck -->
  <rect x="206" y="72" width="100" height="16" rx="6" fill="#fbcb70"/>
  <rect x="218" y="88" width="76" height="108" rx="4" fill="#fbcb70" opacity="0.85"/>
  <!-- Flask body outline -->
  <path d="M218 196 L100 390 Q82 450 148 464 L364 464 Q430 450 412 390 L294 196 Z" fill="#2b2839"/>
  <path d="M218 196 L100 390 Q82 450 148 464 L364 464 Q430 450 412 390 L294 196 Z" fill="none" stroke="#fbcb70" stroke-width="10"/>
  <!-- Liquid -->
  <path d="M116 382 Q98 444 148 458 L364 458 Q414 444 396 382 Z" fill="#fbcb70" opacity="0.85"/>
  <!-- Bubbles in liquid -->
  <circle cx="192" cy="420" r="16" fill="white" opacity="0.2"/>
  <circle cx="270" cy="408" r="11" fill="white" opacity="0.18"/>
  <circle cx="330" cy="428" r="20" fill="white" opacity="0.15"/>
  <!-- Glow dot at top of neck -->
  <circle cx="256" cy="76" r="8" fill="#fff" opacity="0.5"/>
</svg>
